<svg id="Layer_1" data-name="Layer 1" xmlns="http://www.w3.org/2000/svg" viewBox="0 0 512 512"><defs><style>.cls-1{fill:#2f2f2f;}.cls-2{fill:#fcfcfc;}</style></defs><g id="BG"><rect class="cls-1" width="512" height="512"/></g><path id="D" class="cls-2" d="M347.17,253.81q0,56.57-30.7,86.49t-88.36,29.92H164.83V141.78h70q53.28,0,82.81,29.53T347.17,253.81Zm-28.12.94q0-44.68-22.43-67.34T230,164.75H191.39v182.5h32.34q47.51,0,71.41-23.36T319.05,254.75Z"/><path id="Dot" class="cls-2" d="M338.91,349.19q0-10.47,4.76-15.86t13.68-5.39q9.06,0,14.14,5.39t5.08,15.86q0,10.15-5.16,15.62t-14.06,5.47a18.52,18.52,0,0,1-13.21-4.92Q338.91,360.44,338.91,349.19Z"/></svg>